%% Auto-generated for api module: ecs
%% Source: src/main/java/com/myudog/myulib/api
classDiagram
direction LR

namespace ecs {
  class c_com_myudog_myulib_api_ecs_Component["Component"] {
    <<interface>>
  }
  class c_com_myudog_myulib_api_ecs_EcsContainer["EcsContainer"] {
    +EventDispatcherImpl eventBus
    -int nextEntityId
    +void install(DataStorage~Integer, CompoundTag~ storageProvider)
    +void registerSerializer(Class~T~ type, ComponentSerializer~T~ serializer)
    +int createEntity()
    +void destroyEntity(int entityId)
    +void savePersistentEntities()
    -CompoundTag serializeEntity(int entityId)
    -void restoreEntity(int entityId, CompoundTag tag)
    -Set~Integer~ getAllActiveEntities()
    +ComponentStorage~T~ getStorage(Class~T~ type)
    +void addComponent(int entityId, Class~T~ type, T component)
    +T getComponent(int entityId, Class~T~ type)
  }
}

namespace ecs_event {
  class c_com_myudog_myulib_api_ecs_event_ComponentAddedEvent["ComponentAddedEvent"] {
    -int entityId
    -Component component
    ~public ComponentAddedEvent(int entityId, Component component)
    +int getEntityId()
    +Component getComponent()
  }
}

namespace ecs_lifecycle {
  class c_com_myudog_myulib_api_ecs_lifecycle_ComponentLifecycle["ComponentLifecycle"] {
    ~private ComponentLifecycle()
    +boolean isResettable(Component component)
    +DimensionChangePolicy getDimensionPolicy(Component component)
  }
  class c_com_myudog_myulib_api_ecs_lifecycle_DimensionAware["DimensionAware"] {
    <<interface>>
  }
  class c_com_myudog_myulib_api_ecs_lifecycle_DimensionChangePolicy["DimensionChangePolicy"] {
    <<enumeration>>
  }
  class c_com_myudog_myulib_api_ecs_lifecycle_Resettable["Resettable"] {
    <<interface>>
    ~void reset()
  }
}

namespace ecs_storage {
  class c_com_myudog_myulib_api_ecs_storage_ComponentSerializer["ComponentSerializer"] {
    <<interface>>
    ~Tag serialize(T component)
    ~T deserialize(Tag tag)
  }
  class c_com_myudog_myulib_api_ecs_storage_NbtEcsStorage["NbtEcsStorage"] {
    -String FILE_NAME
    -Path storageFile
    +void initialize(MinecraftServer server)
    +void save(Integer id, CompoundTag data)
    +void delete(Integer id)
  }
}

c_com_myudog_myulib_api_ecs_Component <|-- c_com_myudog_myulib_api_ecs_lifecycle_DimensionAware
c_com_myudog_myulib_api_ecs_Component <|-- c_com_myudog_myulib_api_ecs_lifecycle_Resettable
c_com_myudog_myulib_api_ecs_EcsContainer ..> c_com_myudog_myulib_api_ecs_event_ComponentAddedEvent
c_com_myudog_myulib_api_ecs_EcsContainer ..> c_com_myudog_myulib_api_ecs_storage_ComponentSerializer
c_com_myudog_myulib_api_ecs_event_ComponentAddedEvent ..> c_com_myudog_myulib_api_ecs_Component
c_com_myudog_myulib_api_ecs_lifecycle_ComponentLifecycle ..> c_com_myudog_myulib_api_ecs_Component
