%% Auto-generated from src/main/java/com/myudog/myulib/api/**/*.java
%% Regenerate when API structure changes.
classDiagram
direction LR

namespace animation {
  class c_com_myudog_myulib_api_animation_AnimationSpec["AnimationSpec"]
  class c_com_myudog_myulib_api_animation_AnimationTarget["AnimationTarget"] {
    <<interface>>
  }
  class c_com_myudog_myulib_api_animation_AnimatorComponent["AnimatorComponent"]
  class c_com_myudog_myulib_api_animation_Easing["Easing"] {
    <<enumeration>>
  }
  class c_com_myudog_myulib_api_animation_Interpolators["Interpolators"]
  class c_com_myudog_myulib_api_animation_PlayMode["PlayMode"] {
    <<enumeration>>
  }
  class c_com_myudog_myulib_api_animation_PlaybackState["PlaybackState"] {
    <<enumeration>>
  }
  class c_com_myudog_myulib_api_animation_ValueInterpolator["ValueInterpolator"] {
    <<interface>>
  }
}

namespace camera {
  class c_com_myudog_myulib_api_camera_CameraActionPayload["CameraActionPayload"] {
    <<record>>
  }
  class c_com_myudog_myulib_api_camera_CameraApi["CameraApi"]
  class c_com_myudog_myulib_api_camera_CameraDispatchBridge["CameraDispatchBridge"]
  class c_com_myudog_myulib_api_camera_CameraModifier["CameraModifier"] {
    <<interface>>
  }
  class c_com_myudog_myulib_api_camera_CameraTrackingTarget["CameraTrackingTarget"]
  class c_com_myudog_myulib_api_camera_CameraTransform["CameraTransform"]
}

namespace color {
  class c_com_myudog_myulib_api_color_ColorProvider["ColorProvider"]
}

namespace com_myudog_myulib_api {
  class c_com_myudog_myulib_api_AccessSystems["AccessSystems"]
  class c_com_myudog_myulib_api_MyuVFX["MyuVFX"]
  class c_com_myudog_myulib_api_MyuVFXManager["MyuVFXManager"]
  class c_com_myudog_myulib_api_MyulibApi["MyulibApi"]
  class c_com_myudog_myulib_api_Shapes["Shapes"]
  class c_com_myudog_myulib_api_VFXCompat["VFXCompat"]
}

namespace command {
  class c_com_myudog_myulib_api_command_AccessCommandService["AccessCommandService"]
  class c_com_myudog_myulib_api_command_CommandAction["CommandAction"] {
    <<interface>>
  }
  class c_com_myudog_myulib_api_command_CommandContext["CommandContext"] {
    <<record>>
  }
  class c_com_myudog_myulib_api_command_CommandRegistry["CommandRegistry"]
  class c_com_myudog_myulib_api_command_CommandResult["CommandResult"] {
    <<record>>
  }
}

namespace control {
  class c_com_myudog_myulib_api_control_ControlManager["ControlManager"]
}

namespace control_network {
  class c_com_myudog_myulib_api_control_network_ControlInputPayload["ControlInputPayload"] {
    <<record>>
  }
  class c_com_myudog_myulib_api_control_network_ServerControlNetworking["ServerControlNetworking"]
}

namespace core {
  class c_com_myudog_myulib_api_core_Grid["Grid"]
  class c_com_myudog_myulib_api_core_Index["Index"]
  class c_com_myudog_myulib_api_core_Size["Size"]
}

namespace debug {
  class c_com_myudog_myulib_api_debug_DebugFeature["DebugFeature"] {
    <<enumeration>>
  }
  class c_com_myudog_myulib_api_debug_DebugLogManager["DebugLogManager"]
  class c_com_myudog_myulib_api_debug_DebugTraceManager["DebugTraceManager"]
}

namespace dsl {
  class c_com_myudog_myulib_api_dsl_EffectBuilder["EffectBuilder"]
}

namespace dynamics {
  class c_com_myudog_myulib_api_dynamics_ForceFields["ForceFields"]
}

namespace ecs {
  class c_com_myudog_myulib_api_ecs_Component["Component"] {
    <<interface>>
  }
  class c_com_myudog_myulib_api_ecs_EcsContainer["EcsContainer"]
}

namespace ecs_event {
  class c_com_myudog_myulib_api_ecs_event_ComponentAddedEvent["ComponentAddedEvent"]
}

namespace ecs_lifecycle {
  class c_com_myudog_myulib_api_ecs_lifecycle_ComponentLifecycle["ComponentLifecycle"]
  class c_com_myudog_myulib_api_ecs_lifecycle_DimensionAware["DimensionAware"] {
    <<interface>>
  }
  class c_com_myudog_myulib_api_ecs_lifecycle_DimensionChangePolicy["DimensionChangePolicy"] {
    <<enumeration>>
  }
  class c_com_myudog_myulib_api_ecs_lifecycle_Resettable["Resettable"] {
    <<interface>>
  }
}

namespace ecs_storage {
  class c_com_myudog_myulib_api_ecs_storage_ComponentSerializer["ComponentSerializer"] {
    <<interface>>
  }
  class c_com_myudog_myulib_api_ecs_storage_NbtEcsStorage["NbtEcsStorage"]
}

namespace event {
  class c_com_myudog_myulib_api_event_Event["Event"] {
    <<interface>>
  }
  class c_com_myudog_myulib_api_event_EventPriority["EventPriority"]
  class c_com_myudog_myulib_api_event_FailableEvent["FailableEvent"] {
    <<interface>>
  }
  class c_com_myudog_myulib_api_event_ProcessResult["ProcessResult"] {
    <<enumeration>>
  }
  class c_com_myudog_myulib_api_event_ServerEventBus["ServerEventBus"]
}

namespace event_events {
  class c_com_myudog_myulib_api_event_events_EntitySpawnEvent["EntitySpawnEvent"]
  class c_com_myudog_myulib_api_event_events_ServerTickEvent["ServerTickEvent"]
}

namespace event_listener {
  class c_com_myudog_myulib_api_event_listener_EventListener["EventListener"] {
    <<interface>>
  }
}

namespace field {
  class c_com_myudog_myulib_api_field_FieldDefinition["FieldDefinition"] {
    <<record>>
  }
  class c_com_myudog_myulib_api_field_FieldManager["FieldManager"]
  class c_com_myudog_myulib_api_field_FieldVisualizationManager["FieldVisualizationManager"]
}

namespace field_network {
  class c_com_myudog_myulib_api_field_network_FieldVisualizationNetworking["FieldVisualizationNetworking"]
}

namespace field_storage {
  class c_com_myudog_myulib_api_field_storage_NbtFieldStorage["NbtFieldStorage"]
  class c_com_myudog_myulib_api_field_storage_SqlFieldStorage["SqlFieldStorage"]
}

namespace floating {
  class c_com_myudog_myulib_api_floating_IFloatingObject["IFloatingObject"] {
    <<interface>>
  }
}

namespace game_components {
  class c_com_myudog_myulib_api_game_components_ComponentManager["ComponentManager"]
  class c_com_myudog_myulib_api_game_components_ComponentModels["ComponentModels"]
}

namespace game_core {
  class c_com_myudog_myulib_api_game_core_GameConfig["GameConfig"] {
    <<interface>>
  }
  class c_com_myudog_myulib_api_game_core_GameData["GameData"]
  class c_com_myudog_myulib_api_game_core_GameDefinition["GameDefinition"]
  class c_com_myudog_myulib_api_game_core_GameInstance["GameInstance"]
  class c_com_myudog_myulib_api_game_core_GameManager["GameManager"]
}

namespace game_logic {
  class c_com_myudog_myulib_api_game_logic_LogicContracts["LogicContracts"]
  class c_com_myudog_myulib_api_game_logic_LogicEngine["LogicEngine"]
}

namespace game_object {
  class c_com_myudog_myulib_api_game_object_GameObjectConfig["GameObjectConfig"] {
    <<record>>
  }
  class c_com_myudog_myulib_api_game_object_GameObjectKind["GameObjectKind"] {
    <<enumeration>>
  }
  class c_com_myudog_myulib_api_game_object_IGameEntity["IGameEntity"] {
    <<interface>>
  }
}

namespace game_state {
  class c_com_myudog_myulib_api_game_state_BasicGameStateMachine["BasicGameStateMachine"]
  class c_com_myudog_myulib_api_game_state_GameState["GameState"] {
    <<interface>>
  }
  class c_com_myudog_myulib_api_game_state_GameStateChangeEvent["GameStateChangeEvent"] {
    <<record>>
  }
  class c_com_myudog_myulib_api_game_state_GameStateMachine["GameStateMachine"] {
    <<interface>>
  }
}

namespace hologram {
  class c_com_myudog_myulib_api_hologram_HologramDefinition["HologramDefinition"] {
    <<record>>
  }
  class c_com_myudog_myulib_api_hologram_HologramFeature["HologramFeature"] {
    <<enumeration>>
  }
  class c_com_myudog_myulib_api_hologram_HologramManager["HologramManager"]
  class c_com_myudog_myulib_api_hologram_HologramStyle["HologramStyle"] {
    <<record>>
  }
}

namespace hologram_network {
  class c_com_myudog_myulib_api_hologram_network_HologramNetworking["HologramNetworking"]
}

namespace permission {
  class c_com_myudog_myulib_api_permission_PermissionAction["PermissionAction"] {
    <<enumeration>>
  }
  class c_com_myudog_myulib_api_permission_PermissionDecision["PermissionDecision"] {
    <<enumeration>>
  }
  class c_com_myudog_myulib_api_permission_PermissionGate["PermissionGate"]
  class c_com_myudog_myulib_api_permission_PermissionManager["PermissionManager"]
  class c_com_myudog_myulib_api_permission_PermissionScope["PermissionScope"]
  class c_com_myudog_myulib_api_permission_PermissionTable["PermissionTable"]
  class c_com_myudog_myulib_api_permission_ScopeLayer["ScopeLayer"] {
    <<enumeration>>
  }
}

namespace permission_storage {
  class c_com_myudog_myulib_api_permission_storage_NbtPermissionStorage["NbtPermissionStorage"]
  class c_com_myudog_myulib_api_permission_storage_SqlPermissionStorage["SqlPermissionStorage"]
}

namespace rolegroup {
  class c_com_myudog_myulib_api_rolegroup_RoleGroupDefinition["RoleGroupDefinition"] {
    <<record>>
  }
  class c_com_myudog_myulib_api_rolegroup_RoleGroupManager["RoleGroupManager"]
  class c_com_myudog_myulib_api_rolegroup_RoleGroupStorage["RoleGroupStorage"] {
    <<interface>>
  }
}

namespace rolegroup_storage {
  class c_com_myudog_myulib_api_rolegroup_storage_NbtRoleGroupStorage["NbtRoleGroupStorage"]
  class c_com_myudog_myulib_api_rolegroup_storage_SqlRoleGroupStorage["SqlRoleGroupStorage"]
}

namespace shape {
  class c_com_myudog_myulib_api_shape_IShape["IShape"] {
    <<interface>>
  }
}

namespace storage {
  class c_com_myudog_myulib_api_storage_DataStorage["DataStorage"] {
    <<interface>>
  }
  class c_com_myudog_myulib_api_storage_StorageStrategy["StorageStrategy"] {
    <<enumeration>>
  }
}

namespace team {
  class c_com_myudog_myulib_api_team_TeamAdminService["TeamAdminService"]
  class c_com_myudog_myulib_api_team_TeamColor["TeamColor"] {
    <<enumeration>>
  }
  class c_com_myudog_myulib_api_team_TeamDefinition["TeamDefinition"] {
    <<record>>
  }
  class c_com_myudog_myulib_api_team_TeamFlag["TeamFlag"] {
    <<enumeration>>
  }
  class c_com_myudog_myulib_api_team_TeamManager["TeamManager"]
}

namespace team_storage {
  class c_com_myudog_myulib_api_team_storage_NbtTeamStorage["NbtTeamStorage"]
  class c_com_myudog_myulib_api_team_storage_SqlTeamStorage["SqlTeamStorage"]
}

namespace timer {
  class c_com_myudog_myulib_api_timer_TimerAction["TimerAction"] {
    <<interface>>
  }
  class c_com_myudog_myulib_api_timer_TimerBinding["TimerBinding"] {
    <<record>>
  }
  class c_com_myudog_myulib_api_timer_TimerDefinition["TimerDefinition"]
  class c_com_myudog_myulib_api_timer_TimerEvents["TimerEvents"]
  class c_com_myudog_myulib_api_timer_TimerInstance["TimerInstance"]
  class c_com_myudog_myulib_api_timer_TimerManager["TimerManager"]
  class c_com_myudog_myulib_api_timer_TimerMode["TimerMode"] {
    <<enumeration>>
  }
  class c_com_myudog_myulib_api_timer_TimerPayload["TimerPayload"] {
    <<interface>>
  }
  class c_com_myudog_myulib_api_timer_TimerSnapshot["TimerSnapshot"] {
    <<record>>
  }
  class c_com_myudog_myulib_api_timer_TimerStatus["TimerStatus"] {
    <<enumeration>>
  }
  class c_com_myudog_myulib_api_timer_TimerTickBasis["TimerTickBasis"] {
    <<enumeration>>
  }
}

namespace ui {
  class c_com_myudog_myulib_api_ui_ConfigurationUiBridge["ConfigurationUiBridge"] {
    <<interface>>
  }
  class c_com_myudog_myulib_api_ui_ConfigurationUiRegistry["ConfigurationUiRegistry"]
  class c_com_myudog_myulib_api_ui_NoopConfigurationUiBridge["NoopConfigurationUiBridge"] {
    <<enumeration>>
  }
}

namespace ui_sidebar {
  class c_com_myudog_myulib_api_ui_sidebar_VirtualSidebar["VirtualSidebar"]
}

namespace ui_tablist {
  class c_com_myudog_myulib_api_ui_tablist_TabListManager["TabListManager"]
}

namespace util {
  class c_com_myudog_myulib_api_util_NbtIoHelper["NbtIoHelper"]
  class c_com_myudog_myulib_api_util_ShortIdGenerator["ShortIdGenerator"]
  class c_com_myudog_myulib_api_util_ShortIdRegistry["ShortIdRegistry"]
}

c_com_myudog_myulib_api_ecs_Component <|-- c_com_myudog_myulib_api_ecs_lifecycle_DimensionAware
c_com_myudog_myulib_api_ecs_Component <|-- c_com_myudog_myulib_api_ecs_lifecycle_Resettable
c_com_myudog_myulib_api_event_Event <|-- c_com_myudog_myulib_api_event_FailableEvent
c_com_myudog_myulib_api_event_Event <|.. c_com_myudog_myulib_api_ecs_event_ComponentAddedEvent
c_com_myudog_myulib_api_event_Event <|.. c_com_myudog_myulib_api_event_events_ServerTickEvent
c_com_myudog_myulib_api_event_Event <|.. c_com_myudog_myulib_api_game_state_GameStateChangeEvent
c_com_myudog_myulib_api_event_FailableEvent <|.. c_com_myudog_myulib_api_event_events_EntitySpawnEvent
c_com_myudog_myulib_api_game_state_GameStateMachine <|.. c_com_myudog_myulib_api_game_state_BasicGameStateMachine
c_com_myudog_myulib_api_rolegroup_RoleGroupStorage <|.. c_com_myudog_myulib_api_rolegroup_storage_NbtRoleGroupStorage
c_com_myudog_myulib_api_ui_ConfigurationUiBridge <|.. c_com_myudog_myulib_api_ui_NoopConfigurationUiBridge
c_com_myudog_myulib_api_AccessSystems ..> c_com_myudog_myulib_api_command_AccessCommandService
c_com_myudog_myulib_api_AccessSystems ..> c_com_myudog_myulib_api_command_CommandRegistry
c_com_myudog_myulib_api_AccessSystems ..> c_com_myudog_myulib_api_ui_ConfigurationUiRegistry
c_com_myudog_myulib_api_AccessSystems ..> c_com_myudog_myulib_api_ui_NoopConfigurationUiBridge
c_com_myudog_myulib_api_MyuVFX ..> c_com_myudog_myulib_api_floating_IFloatingObject
c_com_myudog_myulib_api_MyuVFXManager ..> c_com_myudog_myulib_api_dsl_EffectBuilder
c_com_myudog_myulib_api_MyulibApi ..> c_com_myudog_myulib_api_camera_CameraApi
c_com_myudog_myulib_api_MyulibApi ..> c_com_myudog_myulib_api_control_ControlManager
c_com_myudog_myulib_api_MyulibApi ..> c_com_myudog_myulib_api_debug_DebugLogManager
c_com_myudog_myulib_api_MyulibApi ..> c_com_myudog_myulib_api_field_FieldManager
c_com_myudog_myulib_api_MyulibApi ..> c_com_myudog_myulib_api_field_FieldVisualizationManager
c_com_myudog_myulib_api_MyulibApi ..> c_com_myudog_myulib_api_game_core_GameManager
c_com_myudog_myulib_api_MyulibApi ..> c_com_myudog_myulib_api_hologram_network_HologramNetworking
c_com_myudog_myulib_api_MyulibApi ..> c_com_myudog_myulib_api_permission_PermissionManager
c_com_myudog_myulib_api_MyulibApi ..> c_com_myudog_myulib_api_rolegroup_RoleGroupManager
c_com_myudog_myulib_api_MyulibApi ..> c_com_myudog_myulib_api_team_TeamManager
c_com_myudog_myulib_api_MyulibApi ..> c_com_myudog_myulib_api_timer_TimerManager
c_com_myudog_myulib_api_Shapes ..> c_com_myudog_myulib_api_shape_IShape
c_com_myudog_myulib_api_camera_CameraActionPayload ..> c_com_myudog_myulib_api_animation_Easing
c_com_myudog_myulib_api_camera_CameraApi ..> c_com_myudog_myulib_api_animation_Easing
c_com_myudog_myulib_api_camera_CameraApi ..> c_com_myudog_myulib_api_debug_DebugFeature
c_com_myudog_myulib_api_camera_CameraApi ..> c_com_myudog_myulib_api_debug_DebugLogManager
c_com_myudog_myulib_api_command_AccessCommandService ..> c_com_myudog_myulib_api_control_ControlManager
c_com_myudog_myulib_api_command_AccessCommandService ..> c_com_myudog_myulib_api_debug_DebugFeature
c_com_myudog_myulib_api_command_AccessCommandService ..> c_com_myudog_myulib_api_debug_DebugLogManager
c_com_myudog_myulib_api_command_AccessCommandService ..> c_com_myudog_myulib_api_debug_DebugTraceManager
c_com_myudog_myulib_api_command_AccessCommandService ..> c_com_myudog_myulib_api_field_FieldDefinition
c_com_myudog_myulib_api_command_AccessCommandService ..> c_com_myudog_myulib_api_field_FieldManager
c_com_myudog_myulib_api_command_AccessCommandService ..> c_com_myudog_myulib_api_field_FieldVisualizationManager
c_com_myudog_myulib_api_command_AccessCommandService ..> c_com_myudog_myulib_api_game_core_GameConfig
c_com_myudog_myulib_api_command_AccessCommandService ..> c_com_myudog_myulib_api_game_core_GameInstance
c_com_myudog_myulib_api_command_AccessCommandService ..> c_com_myudog_myulib_api_game_core_GameManager
c_com_myudog_myulib_api_command_AccessCommandService ..> c_com_myudog_myulib_api_hologram_HologramDefinition
c_com_myudog_myulib_api_command_AccessCommandService ..> c_com_myudog_myulib_api_hologram_HologramFeature
c_com_myudog_myulib_api_command_AccessCommandService ..> c_com_myudog_myulib_api_hologram_HologramManager
c_com_myudog_myulib_api_command_AccessCommandService ..> c_com_myudog_myulib_api_hologram_network_HologramNetworking
c_com_myudog_myulib_api_command_AccessCommandService ..> c_com_myudog_myulib_api_permission_PermissionAction
c_com_myudog_myulib_api_command_AccessCommandService ..> c_com_myudog_myulib_api_permission_PermissionDecision
c_com_myudog_myulib_api_command_AccessCommandService ..> c_com_myudog_myulib_api_permission_PermissionManager
c_com_myudog_myulib_api_command_AccessCommandService ..> c_com_myudog_myulib_api_permission_ScopeLayer
c_com_myudog_myulib_api_command_AccessCommandService ..> c_com_myudog_myulib_api_rolegroup_RoleGroupDefinition
c_com_myudog_myulib_api_command_AccessCommandService ..> c_com_myudog_myulib_api_rolegroup_RoleGroupManager
c_com_myudog_myulib_api_command_AccessCommandService ..> c_com_myudog_myulib_api_team_TeamColor
c_com_myudog_myulib_api_command_AccessCommandService ..> c_com_myudog_myulib_api_team_TeamDefinition
c_com_myudog_myulib_api_command_AccessCommandService ..> c_com_myudog_myulib_api_team_TeamManager
c_com_myudog_myulib_api_command_AccessCommandService ..> c_com_myudog_myulib_api_timer_TimerDefinition
c_com_myudog_myulib_api_command_AccessCommandService ..> c_com_myudog_myulib_api_timer_TimerManager
c_com_myudog_myulib_api_control_ControlManager ..> c_com_myudog_myulib_api_control_network_ControlInputPayload
c_com_myudog_myulib_api_control_ControlManager ..> c_com_myudog_myulib_api_debug_DebugFeature
c_com_myudog_myulib_api_control_ControlManager ..> c_com_myudog_myulib_api_debug_DebugLogManager
c_com_myudog_myulib_api_dsl_EffectBuilder ..> c_com_myudog_myulib_api_Shapes
c_com_myudog_myulib_api_dsl_EffectBuilder ..> c_com_myudog_myulib_api_color_ColorProvider
c_com_myudog_myulib_api_dsl_EffectBuilder ..> c_com_myudog_myulib_api_floating_IFloatingObject
c_com_myudog_myulib_api_dsl_EffectBuilder ..> c_com_myudog_myulib_api_shape_IShape
c_com_myudog_myulib_api_ecs_EcsContainer ..> c_com_myudog_myulib_api_ecs_event_ComponentAddedEvent
c_com_myudog_myulib_api_ecs_EcsContainer ..> c_com_myudog_myulib_api_ecs_storage_ComponentSerializer
c_com_myudog_myulib_api_ecs_EcsContainer ..> c_com_myudog_myulib_api_storage_DataStorage
c_com_myudog_myulib_api_ecs_EcsContainer ..> c_com_myudog_myulib_api_util_NbtIoHelper
c_com_myudog_myulib_api_ecs_event_ComponentAddedEvent ..> c_com_myudog_myulib_api_ecs_Component
c_com_myudog_myulib_api_ecs_lifecycle_ComponentLifecycle ..> c_com_myudog_myulib_api_ecs_Component
c_com_myudog_myulib_api_ecs_storage_NbtEcsStorage ..> c_com_myudog_myulib_api_storage_DataStorage
c_com_myudog_myulib_api_ecs_storage_NbtEcsStorage ..> c_com_myudog_myulib_api_util_NbtIoHelper
c_com_myudog_myulib_api_event_ServerEventBus ..> c_com_myudog_myulib_api_event_listener_EventListener
c_com_myudog_myulib_api_event_listener_EventListener ..> c_com_myudog_myulib_api_event_Event
c_com_myudog_myulib_api_event_listener_EventListener ..> c_com_myudog_myulib_api_event_ProcessResult
c_com_myudog_myulib_api_field_FieldManager ..> c_com_myudog_myulib_api_debug_DebugFeature
c_com_myudog_myulib_api_field_FieldManager ..> c_com_myudog_myulib_api_debug_DebugLogManager
c_com_myudog_myulib_api_field_FieldManager ..> c_com_myudog_myulib_api_field_storage_NbtFieldStorage
c_com_myudog_myulib_api_field_FieldManager ..> c_com_myudog_myulib_api_storage_DataStorage
c_com_myudog_myulib_api_field_FieldManager ..> c_com_myudog_myulib_api_util_ShortIdRegistry
c_com_myudog_myulib_api_field_FieldVisualizationManager ..> c_com_myudog_myulib_api_hologram_network_HologramNetworking
c_com_myudog_myulib_api_field_storage_NbtFieldStorage ..> c_com_myudog_myulib_api_field_FieldDefinition
c_com_myudog_myulib_api_field_storage_NbtFieldStorage ..> c_com_myudog_myulib_api_storage_DataStorage
c_com_myudog_myulib_api_field_storage_NbtFieldStorage ..> c_com_myudog_myulib_api_util_NbtIoHelper
c_com_myudog_myulib_api_field_storage_SqlFieldStorage ..> c_com_myudog_myulib_api_field_FieldDefinition
c_com_myudog_myulib_api_field_storage_SqlFieldStorage ..> c_com_myudog_myulib_api_storage_DataStorage
c_com_myudog_myulib_api_field_storage_SqlFieldStorage ..> c_com_myudog_myulib_api_team_TeamDefinition
c_com_myudog_myulib_api_game_components_ComponentManager ..> c_com_myudog_myulib_api_game_core_GameInstance
c_com_myudog_myulib_api_game_core_GameConfig ..> c_com_myudog_myulib_api_game_object_GameObjectConfig
c_com_myudog_myulib_api_game_core_GameData ..> c_com_myudog_myulib_api_ecs_EcsContainer
c_com_myudog_myulib_api_game_core_GameDefinition ..> c_com_myudog_myulib_api_game_state_GameState
c_com_myudog_myulib_api_game_core_GameDefinition ..> c_com_myudog_myulib_api_game_state_GameStateMachine
c_com_myudog_myulib_api_game_core_GameInstance ..> c_com_myudog_myulib_api_debug_DebugFeature
c_com_myudog_myulib_api_game_core_GameInstance ..> c_com_myudog_myulib_api_debug_DebugLogManager
c_com_myudog_myulib_api_game_core_GameInstance ..> c_com_myudog_myulib_api_ecs_EcsContainer
c_com_myudog_myulib_api_game_core_GameInstance ..> c_com_myudog_myulib_api_field_FieldManager
c_com_myudog_myulib_api_game_core_GameInstance ..> c_com_myudog_myulib_api_game_object_GameObjectConfig
c_com_myudog_myulib_api_game_core_GameInstance ..> c_com_myudog_myulib_api_game_state_GameState
c_com_myudog_myulib_api_game_core_GameInstance ..> c_com_myudog_myulib_api_game_state_GameStateChangeEvent
c_com_myudog_myulib_api_game_core_GameInstance ..> c_com_myudog_myulib_api_game_state_GameStateMachine
c_com_myudog_myulib_api_game_core_GameInstance ..> c_com_myudog_myulib_api_team_TeamManager
c_com_myudog_myulib_api_game_core_GameManager ..> c_com_myudog_myulib_api_debug_DebugFeature
c_com_myudog_myulib_api_game_core_GameManager ..> c_com_myudog_myulib_api_debug_DebugLogManager
c_com_myudog_myulib_api_game_core_GameManager ..> c_com_myudog_myulib_api_game_state_GameState
c_com_myudog_myulib_api_game_logic_LogicContracts ..> c_com_myudog_myulib_api_game_state_GameState
c_com_myudog_myulib_api_game_logic_LogicEngine ..> c_com_myudog_myulib_api_game_state_GameState
c_com_myudog_myulib_api_game_object_IGameEntity ..> c_com_myudog_myulib_api_game_core_GameInstance
c_com_myudog_myulib_api_game_state_GameState ..> c_com_myudog_myulib_api_game_core_GameInstance
c_com_myudog_myulib_api_game_state_GameStateChangeEvent ..> c_com_myudog_myulib_api_game_core_GameInstance
c_com_myudog_myulib_api_hologram_HologramManager ..> c_com_myudog_myulib_api_hologram_network_HologramNetworking
c_com_myudog_myulib_api_hologram_network_HologramNetworking ..> c_com_myudog_myulib_api_hologram_HologramDefinition
c_com_myudog_myulib_api_hologram_network_HologramNetworking ..> c_com_myudog_myulib_api_hologram_HologramStyle
c_com_myudog_myulib_api_permission_PermissionGate ..> c_com_myudog_myulib_api_debug_DebugFeature
c_com_myudog_myulib_api_permission_PermissionGate ..> c_com_myudog_myulib_api_debug_DebugLogManager
c_com_myudog_myulib_api_permission_PermissionGate ..> c_com_myudog_myulib_api_field_FieldDefinition
c_com_myudog_myulib_api_permission_PermissionGate ..> c_com_myudog_myulib_api_field_FieldManager
c_com_myudog_myulib_api_permission_PermissionGate ..> c_com_myudog_myulib_api_rolegroup_RoleGroupManager
c_com_myudog_myulib_api_permission_PermissionManager ..> c_com_myudog_myulib_api_permission_storage_NbtPermissionStorage
c_com_myudog_myulib_api_permission_PermissionManager ..> c_com_myudog_myulib_api_storage_DataStorage
c_com_myudog_myulib_api_permission_PermissionManager ..> c_com_myudog_myulib_api_util_ShortIdRegistry
c_com_myudog_myulib_api_permission_storage_NbtPermissionStorage ..> c_com_myudog_myulib_api_permission_PermissionAction
c_com_myudog_myulib_api_permission_storage_NbtPermissionStorage ..> c_com_myudog_myulib_api_permission_PermissionDecision
c_com_myudog_myulib_api_permission_storage_NbtPermissionStorage ..> c_com_myudog_myulib_api_permission_PermissionScope
c_com_myudog_myulib_api_permission_storage_NbtPermissionStorage ..> c_com_myudog_myulib_api_permission_PermissionTable
c_com_myudog_myulib_api_permission_storage_NbtPermissionStorage ..> c_com_myudog_myulib_api_storage_DataStorage
c_com_myudog_myulib_api_permission_storage_NbtPermissionStorage ..> c_com_myudog_myulib_api_util_NbtIoHelper
c_com_myudog_myulib_api_permission_storage_SqlPermissionStorage ..> c_com_myudog_myulib_api_permission_PermissionScope
c_com_myudog_myulib_api_permission_storage_SqlPermissionStorage ..> c_com_myudog_myulib_api_storage_DataStorage
c_com_myudog_myulib_api_permission_storage_SqlPermissionStorage ..> c_com_myudog_myulib_api_team_TeamDefinition
c_com_myudog_myulib_api_rolegroup_RoleGroupManager ..> c_com_myudog_myulib_api_debug_DebugFeature
c_com_myudog_myulib_api_rolegroup_RoleGroupManager ..> c_com_myudog_myulib_api_debug_DebugLogManager
c_com_myudog_myulib_api_rolegroup_RoleGroupManager ..> c_com_myudog_myulib_api_rolegroup_storage_NbtRoleGroupStorage
c_com_myudog_myulib_api_rolegroup_RoleGroupManager ..> c_com_myudog_myulib_api_util_ShortIdRegistry
c_com_myudog_myulib_api_rolegroup_storage_NbtRoleGroupStorage ..> c_com_myudog_myulib_api_rolegroup_RoleGroupDefinition
c_com_myudog_myulib_api_rolegroup_storage_NbtRoleGroupStorage ..> c_com_myudog_myulib_api_util_NbtIoHelper
c_com_myudog_myulib_api_rolegroup_storage_SqlRoleGroupStorage ..> c_com_myudog_myulib_api_rolegroup_RoleGroupDefinition
c_com_myudog_myulib_api_rolegroup_storage_SqlRoleGroupStorage ..> c_com_myudog_myulib_api_storage_DataStorage
c_com_myudog_myulib_api_rolegroup_storage_SqlRoleGroupStorage ..> c_com_myudog_myulib_api_team_TeamDefinition
c_com_myudog_myulib_api_team_TeamAdminService ..> c_com_myudog_myulib_api_ui_ConfigurationUiBridge
c_com_myudog_myulib_api_team_TeamManager ..> c_com_myudog_myulib_api_debug_DebugFeature
c_com_myudog_myulib_api_team_TeamManager ..> c_com_myudog_myulib_api_debug_DebugLogManager
c_com_myudog_myulib_api_team_TeamManager ..> c_com_myudog_myulib_api_storage_DataStorage
c_com_myudog_myulib_api_team_TeamManager ..> c_com_myudog_myulib_api_team_storage_NbtTeamStorage
c_com_myudog_myulib_api_team_TeamManager ..> c_com_myudog_myulib_api_util_ShortIdRegistry
c_com_myudog_myulib_api_team_storage_NbtTeamStorage ..> c_com_myudog_myulib_api_storage_DataStorage
c_com_myudog_myulib_api_team_storage_NbtTeamStorage ..> c_com_myudog_myulib_api_team_TeamColor
c_com_myudog_myulib_api_team_storage_NbtTeamStorage ..> c_com_myudog_myulib_api_team_TeamDefinition
c_com_myudog_myulib_api_team_storage_NbtTeamStorage ..> c_com_myudog_myulib_api_team_TeamFlag
c_com_myudog_myulib_api_team_storage_NbtTeamStorage ..> c_com_myudog_myulib_api_util_NbtIoHelper
c_com_myudog_myulib_api_team_storage_SqlTeamStorage ..> c_com_myudog_myulib_api_storage_DataStorage
c_com_myudog_myulib_api_team_storage_SqlTeamStorage ..> c_com_myudog_myulib_api_team_TeamDefinition
c_com_myudog_myulib_api_timer_TimerManager ..> c_com_myudog_myulib_api_debug_DebugFeature
c_com_myudog_myulib_api_timer_TimerManager ..> c_com_myudog_myulib_api_debug_DebugLogManager
c_com_myudog_myulib_api_ui_ConfigurationUiBridge ..> c_com_myudog_myulib_api_permission_ScopeLayer
c_com_myudog_myulib_api_ui_ConfigurationUiRegistry ..> c_com_myudog_myulib_api_permission_ScopeLayer
c_com_myudog_myulib_api_ui_NoopConfigurationUiBridge ..> c_com_myudog_myulib_api_permission_ScopeLayer
c_com_myudog_myulib_api_ui_tablist_TabListManager ..> c_com_myudog_myulib_api_rolegroup_RoleGroupDefinition
c_com_myudog_myulib_api_ui_tablist_TabListManager ..> c_com_myudog_myulib_api_rolegroup_RoleGroupManager
