%% Auto-generated for api module: event
%% Source: src/main/java/com/myudog/myulib/api
classDiagram
direction LR

namespace event {
  class c_com_myudog_myulib_api_event_Event["Event"] {
    <<interface>>
  }
  class c_com_myudog_myulib_api_event_EventPriority["EventPriority"] {
    +int HIGHEST
    +int HIGH
    +int NORMAL
    +int LOW
    +int LOWEST
    ~private EventPriority()
  }
  class c_com_myudog_myulib_api_event_FailableEvent["FailableEvent"] {
    <<interface>>
    ~String getErrorMessage()
    ~void setErrorMessage(String errorMessage)
  }
  class c_com_myudog_myulib_api_event_ProcessResult["ProcessResult"] {
    <<enumeration>>
  }
  class c_com_myudog_myulib_api_event_ServerEventBus["ServerEventBus"] {
    -EventDispatcherImpl DISPATCHER
    ~private ServerEventBus()
    +EventDispatcherImpl dispatcher()
    +EventListener~T~ subscribe(Class~T~ eventType, EventListener~T~ listener)
    +EventListener~T~ subscribe(Class~T~ eventType, int priority, EventListener~T~ listener)
    +void unsubscribe(Class~T~ eventType, EventListener~T~ listener)
    +ProcessResult dispatch(Event event)
  }
}

namespace event_events {
  class c_com_myudog_myulib_api_event_events_EntitySpawnEvent["EntitySpawnEvent"] {
    -Entity entity
    -Level Level
    -String errorMessage
    ~public EntitySpawnEvent(Entity entity, Level Level)
    ~public EntitySpawnEvent(Entity entity, Level Level, String errorMessage)
    +Entity getEntity()
    +Level getWorld()
    +String getErrorMessage()
    +void setErrorMessage(String errorMessage)
  }
  class c_com_myudog_myulib_api_event_events_ServerTickEvent["ServerTickEvent"] {
    -MinecraftServer server
    ~public ServerTickEvent(MinecraftServer server)
    +MinecraftServer getServer()
  }
}

namespace event_listener {
  class c_com_myudog_myulib_api_event_listener_EventListener["EventListener"] {
    <<interface>>
    ~ProcessResult handle(T event)
  }
}

c_com_myudog_myulib_api_event_Event <|-- c_com_myudog_myulib_api_event_FailableEvent
c_com_myudog_myulib_api_event_Event <|.. c_com_myudog_myulib_api_event_events_ServerTickEvent
c_com_myudog_myulib_api_event_FailableEvent <|.. c_com_myudog_myulib_api_event_events_EntitySpawnEvent
c_com_myudog_myulib_api_event_ServerEventBus ..> c_com_myudog_myulib_api_event_listener_EventListener
c_com_myudog_myulib_api_event_listener_EventListener ..> c_com_myudog_myulib_api_event_Event
c_com_myudog_myulib_api_event_listener_EventListener ..> c_com_myudog_myulib_api_event_ProcessResult
